<?xml version="1.0" encoding="utf-8"?>
<!-- Generator: Adobe Illustrator 22.1.0, SVG Export Plug-In . SVG Version: 6.00 Build 0)  -->
<svg version="1.1" id="Layer_1" xmlns="http://www.w3.org/2000/svg" xmlns:xlink="http://www.w3.org/1999/xlink" x="0px" y="0px"
	 viewBox="0 0 284.4 268.2" style="enable-background:new 0 0 284.4 268.2;" xml:space="preserve">
<style type="text/css">
	.st0{fill:none;stroke:#000000;stroke-miterlimit:10;}
</style>
<g>
	<g>
		<g>
			<path class="st0" d="M0,7.4c0,0,6.3,0,17.1,0c3.6,0,7.7,0,11.9,0.3c29.3,2.5,60.6-5.9,90.9-0.3c3.5,0,7,0,10.5,0
				c9.2,0,18.5,0,27.7,0c3,0.1,5.9,0.4,8.5,0.9c15.1,6.1,31.8-2.2,46-0.4c4-0.3,7.8-0.6,11.6-0.8c11.3-0.9,22.6-1.5,34.2-0.5
				c4,0.5,7.4,0.9,10.3,0.9c8.4,0,13.3,0,13.3,0"/>
			<path class="st0" d="M282,11.6c0,0-2.2,0-6.1,0c-2,0-4.4,0-7.2,0c-11-2.3-22-2.6-32.9-2c-3.6,0.2-7.3,0.4-10.9,0.8
				c-22.3-2.2-43.2,8.3-66.8,1.3c-3,0-6.1,0-9.2-0.1c-6.2,0-12.3,0-18.5,0c-3.5,0-7,0-10.6-0.1c-30.2-7.5-61.6,5-91.2,0.9
				c-3.9-0.6-7.9-0.8-11.4-0.8c-10.8,0-17.1,0-17.1,0"/>
		</g>
		<g>
			<path class="st0" d="M0,25.4c0,0,2.8,0,7.9,0c2.5,0,5.6,0,9,0.6c10-1.1,20.5,5.2,33,3.1c23.8-3.7,46-8.9,70.1-5.6
				c3.4,0.5,6.8,1.2,9.9,2.3c3.4-0.1,6.8-0.3,10.3-0.4c3.4-0.1,6.7,0,9.9,0.2c27.4,7.6,54.6-0.7,82.4-2.1c3.8,0,7.5,0,11-0.1
				c10.6-0.3,21.3,0.3,32.3,2c4,0,6.2,0,6.2,0"/>
			<path class="st0" d="M282,29.6c0,0-3.1,0-8.6-0.4c-7.9-1.7-15.9-2.5-23.9-2.7c-4-0.1-8.1-0.1-12.4-0.2
				c-30.4-1.5-63.8,11.1-95.6,4.4c-3.5-0.3-7.2-0.5-10.8-1c-3.6-0.5-7.2-1.1-10.7-2.1c-3.4-0.5-6.8-0.8-10.2-0.9
				c-20.2-0.9-39.5,3.4-59.9,6.5c-10.5,2.1-23,0-33-2.9c-3.3-0.7-6.4-0.8-9-0.8c-5.1,0-7.9,0-7.9,0"/>
		</g>
		<g>
			<path class="st0" d="M0,43.4c0,0,2.8,0,7.9,0c27.3,8.6,52.4,2.3,79.6-3.9c3.1-0.7,6.2-1,9.3-1.1s6,0.1,9,0.4
				c6.4,2.5,12.8,3.9,19.3,4.7c3.2,0.4,6.5,0.7,9.6,1.4c7.3,3,15.6,7.2,21.9,7.2c31.4,0,60.7-23,94.3-12.2c3.8,0.1,7.7,0.4,11.5,0.9
				c3.8,0.5,7.6,1.2,11.4,2.2c5.3,0.5,8.3,0.5,8.3,0.5"/>
			<path class="st0" d="M282,47.6c0,0-3,0-8.3,0c-3.8-0.8-7.5-1.4-11.3-1.9s-7.6-0.7-11.5-0.8c-27.4-11.7-54.6,0.8-81.8,9.2
				c-10.5,4.2-25.1,4.2-33.8-3.5c-3-1-6.1-1.5-9.3-1.9c-6.2-0.8-12.4-2.4-18.4-5.1c-2.8-0.7-5.7-1-8.7-1c-3,0-6.1,0.3-9.2,1
				C62.4,50,35.2,56.2,7.9,47.6c-5.1,0-7.9,0-7.9,0"/>
		</g>
		<g>
			<path class="st0" d="M0,61.5c0,0,2.1,0,5.9,0c1.9,0,4.2,0,7,0.2c24.4,0.9,51.6,5.1,76.7-1.2c3.7-1,7.2-1.7,10.6-2
				c4.6,0.7,9.3,2.1,14,3.4c4.7,1.3,9.4,2.5,14.1,3c13.6,4,26.1,12.4,40.8,8.2c25.1-10.5,50.2-31.4,77.8-16.6
				c3.8,1.5,7.6,2.4,11.4,3.7c3.7,0.3,7.5,0.6,11.2,1.1c2.5,0.3,4.8,0.3,6.7,0.3c3.7,0,5.8,0,5.8,0"/>
			<path class="st0" d="M282,65.6c0,0-2,0-5.8,0c-1.9,0-4.1,0-6.8,0c-3.5-0.5-7.1-0.9-10.7-1.2c-3.9-1.5-7.7-2.7-11.6-4.3
				c-9-1.8-15.3-8.1-23.6-6c-31.4,4.2-60.7,39.7-92.7,15.2c-2.9-0.2-5.8-0.6-8.5-1.2c-5.6-1.1-10.9-2.9-16.5-4.3
				C101.9,63.1,98,62.8,94,63c-28.1,1.8-55.8,10.7-83.2,2.6c-6.8,0-10.7,0-10.7,0"/>
		</g>
		<g>
			<path class="st0" d="M0,79.5c0,0,3.3,0,9.1,0c2.9,0,6.5,0,10.6,0.1c21.9,6.1,43.4,2.5,64.9-0.1c3.6-0.4,7.2-0.8,10.7-1.1
				c10.1,1.8,20.1,2.2,30.1,2c3.3-0.1,6.7-0.1,10.2,0.7c29.3,17,54.4-6,81.6-14.3c10.5-2.1,20.9,2.1,32,9c2.4,1.1,4.8,2.1,7.1,3
				c5,0.8,9.6,0.8,13.5,0.8c7.7,0,12.1,0,12.1,0"/>
			<path class="st0" d="M282,83.7c0,0-6.3,0-17.1,0c-3.6,0-7.7-0.3-11.9-1.6c-12.8-7-23.2-13.3-35.8-9.1
				c-25.1,12.6-52.3,31.4-79.1,14.1c-3.7-1.8-7.2-2.1-10.7-2.1c-10.4,0.1-20.8-0.3-31.1-2c-4.3,0.3-8.5,0.8-12.7,1.3
				c-21.2,2.4-42.2,5.8-63.2-0.6c-6.4-0.1-11.5-0.1-15-0.1s-5.4,0-5.4,0"/>
		</g>
		<g>
			<path class="st0" d="M0,97.5c0,0,6.7,0,18.1,0c3.8,0,8.1,0,12.8,0c3.2,2.4,6.9,3.1,10.7,3.4c16.7,3.7,32.4,1.2,48.5-1.6
				c4-0.7,8.1-1.4,12.2-2c4.9-0.2,9.9-0.4,14.8-0.7c4.9-0.2,9.9-0.5,14.8-0.8c10,2.2,18.4,6.4,28.9,8.4c33.5,2.1,62.8-33.5,92.1-7.9
				c4.4,0.9,8.4,1,12,1c10.8,0,17.1,0,17.1,0"/>
			<path class="st0" d="M282,101.7c0,0-6.3,0-17.1,0c-3.6,0-7.7-0.1-12.2-1.2c-10.4-6.6-20.8-15-33.4-8.7
				c-29.3,12.6-58.6,20.9-90.6,9.4c-4.8,0.1-9.6,0-14.3-0.2s-9.5-0.6-14.2-1.1c-3.4,0.5-6.7,1.3-10.1,2.1
				c-13.3,3.5-26.3,8.9-40.3,5.4c-3.2-0.3-6.3-0.8-9.5-1.7c-3.2-0.9-6.4-2.1-9.6-3.8c-4.6-0.3-8.9-0.3-12.7-0.3
				c-11.4,0-18.1,0-18.1,0"/>
		</g>
		<g>
			<path class="st0" d="M0,115.5c0,0,6.7,0,18.1,0c3.8,0,8.1,0.2,12.6,1.3c12.9,6.3,27.5,6.3,42.2,2.1c10.2-2.4,20.1-4.4,29.9-5.7
				c3.3-0.4,6.6-0.8,10-0.7c4.1,0.3,8.1,0.6,12.2,0.7c4,0.2,8,0.3,12.1,0.8c34.1,15.4,63.4-3.4,96.8-5.5c6.3,0,12.6,4.2,18.4,6
				c4.7,0.6,8.9,0.9,12.5,1c10.8,0,17.1,0,17.1,0"/>
			<path class="st0" d="M282,119.7c0,0-6.3,0-17.1,0c-3.6,0-7.8-0.5-12.6-1.2c-5.8-3.7-12-7.9-18.3-5.8
				c-33.5,4.2-64.8,20.9-98.8,3.9c-3.6-0.6-7.1-0.9-10.7-1.3c-3.5-0.4-7-0.7-10.5-1c-2.7-0.1-5.2,0.1-7.7,0.5
				c-25.1,6.3-50.2,16.7-75.6,6.3c-4.7-1.2-8.9-1.5-12.7-1.5c-11.4,0-18.1,0-18.1,0"/>
		</g>
		<g>
			<path class="st0" d="M0,133.5c0,0,6.7,0,18.1,0c3.8,0,8.1,0.3,13,1.3c10.4-1.2,18.8,5.1,27.1,5.1c18.3-1.3,35.8-7.5,53.6-9.5
				c3.6-0.4,7.1-0.6,10.7-0.6c31.9,16.4,65.4,8,96.7-4.5c8.4-2.1,16.7,2.1,24.1,3.2c3.5,0.7,7.1,1.3,10.7,2c3.6,0.7,7.2,1.7,10.8,3
				c3.6,0,6.7,0,9.2,0c5.1,0,7.9,0,7.9,0"/>
			<path class="st0" d="M282,137.7c0,0-2.8,0-7.9,0c-2.5,0-5.6,0-9.2,0c-3.6-1.6-7.2-2.7-10.8-3.6c-3.6-0.9-7.2-1.5-10.7-2.1
				c-9.4-4.6-17.7-4.6-26.1-0.4c-31.4,10.5-62.8,18.8-95.1,3.2c-3.5,0-6.9,0.2-10.4,0.6c-20.9,2.3-41.9,9.4-63.9,6.7
				c-6.3,0-10.5-2.1-16.6-3.2c-4.9-0.9-9.3-1.1-13.1-1.1c-11.4,0-18.1,0-18.1,0"/>
		</g>
		<g>
			<path class="st0" d="M0,151.6c0,0,7.8,0,20.8,0c4.3,0,9.3,0.2,15.1,0.9c4.1,1,8.1,1.7,12.2,2.2c12.2-2.2,24.8,2,37.2-2
				c4.3-0.7,8.5-1.4,12.7-2.1c4.2-0.7,8.4-1.5,12.5-2.2c3.9,0,7.5-0.3,11.1-0.2c18.2,2.3,32.9,14.8,51.7,10.6
				c23-8.4,43.9-16.7,69.5-13.7c3.7,0.3,7.5,0.9,11.1,2c3.7,1,7.3,2.5,10.9,4.5c5.4,0,9.7,0,12.6,0c2.9,0,4.5,0,4.5,0"/>
			<path class="st0" d="M282,155.7c0,0-1.6,0-4.5,0c-2.9,0-7.2,0-12.6,0c-3.9-2.5-7.8-4.3-11.7-5.5s-7.9-1.9-11.9-2.1
				c-42.9,0.2-78.4,27.4-119.9,5.6c-4.1-0.6-8.2-0.6-12.4-0.4c-4.1,0.2-8.2,0.5-12.4,0.9c-21.7,0.4-40.5,8.8-60.6,2.1
				c-4.6-0.4-8.7-0.6-12.4-0.6c-14.7,0-23.7,0-23.7,0"/>
		</g>
		<g>
			<path class="st0" d="M0,169.6c0,0,8.9,0,23.7,0c3.7,0,7.6,0.1,11.8,0.2c25.4,4.9,49.4-4.1,74-3.5c3.5,0.1,6.9,0.7,10.3,1.7
				c38.9,20,74.5-0.9,114.8-5.9c2.5,0.3,5.1,0.6,7.7,1.1c7.8,1.3,15.5,4,22.6,6.3c5.4,0.1,9.7,0.1,12.6,0.1c2.9,0,4.5,0,4.5,0"/>
			<path class="st0" d="M282,173.8c0,0-1.6,0-4.5,0c-2.9,0-7.2,0-12.6-0.1c-6.7-3.2-13.4-4.9-20.1-5.6c-3.4-0.3-6.7-0.4-10.1-0.4
				c-42.5,7.9-80.2,18.3-122.9,5.5c-4.1-0.2-8.3-0.3-12.5-0.2c-25.2,0.1-51.5,2.2-76.4,0.9c-4.7,0-8.9,0-12.3,0
				c-6.8,0-10.7,0-10.7,0"/>
		</g>
		<g>
			<path class="st0" d="M0,187.6c0,0,1.6,0,4.5,0s7.2,0,12.6,0c27.3,4.7,54-1.1,81.2-2.2c3.9-0.1,7.8-0.2,11.7,0.1
				c40.3,11,80.1,2.6,119.9-1.8c4.1-0.8,8.8-1.3,13.6-1c4.7,0.3,9.4,1.4,13.6,3.7c5,1,9.4,1.3,13.2,1.3c7.5,0,11.8,0,11.8,0"/>
			<path class="st0" d="M282,191.8c0,0-3.7,0-10.3,0c-3.3,0-7.3,0-11.7-0.5c-6.5-2.4-13-3.4-19.4-3.5c-3.2-0.1-6.4,0.1-9.6,0.3
				c-41,6.2-85,12.5-127,0.9c-2.8,0.2-5.6,0.6-8.2,1.1c-27.2,2.1-52.3,4.2-78.8,1.7c-5.4,0-9.7,0-12.6,0s-4.5,0-4.5,0"/>
		</g>
		<g>
			<path class="st0" d="M0,205.6c0,0,2.8,0,7.9,0c2.5,0,5.6,0,8.9,0.6c25.3,7.8,50.8-0.8,76.4-3.1c3.7-0.3,7.3-0.5,11-0.5
				c41.8,12.6,83.7,0,127-0.4c2.6,0.2,5.2,0.4,7.7,0.7c7.7,0.9,15.1,2.2,22.7,2.6c4.2,0,7.9,0,10.9,0c6,0,9.4,0,9.4,0"/>
			<path class="st0" d="M282,209.8c0,0-7.6,0-20.3,0c-4.2,0-8.9-0.2-13.8-0.6c-3.8-0.6-7.7-0.9-11.6-1c-3.9-0.2-7.9-0.1-11.7-0.3
				c-38.7,1.1-76.4,9.4-114.7-1.2c-3.6-0.1-7.2,0.1-10.8,0.4c-21.5,1.8-43.4,7.3-66,6.1c-8.4,0-16.7-2.1-25.3-3.3
				c-5.1,0-7.9,0-7.9,0"/>
		</g>
		<g>
			<path class="st0" d="M0,223.6c0,0,2.8,0,7.8,0.4c3.8,0.8,7.6,1.4,11.4,2.1c7.6,1.7,13.9,3.7,22.3,3.7c20.9-2.6,41-10.1,61.1-11.3
				c4-0.2,8.1-0.2,12.2,0.4c35.5,13.1,73.1,0.5,111.7,2.1c3.5,0.1,6.9,0.4,10.4,0.8s7,1,10.5,1.8c4.2,0,8.1,0,11.7,0
				c14.3,0,22.9,0,22.9,0"/>
			<path class="st0" d="M282,227.8c0,0-8.6,0-22.9,0c-3.6,0-7.5,0-11.7,0c-4.3-0.5-8.5-1-12.6-1.3c-3.6-0.5-7.2-0.8-10.8-0.9
				c-3.6-0.2-7-0.3-10.4-0.4c-36.1,0.5-71.6,11-105.1-1.6c-3.9-0.5-7.8-0.6-11.6-0.4c-26.6,1.4-50.8,17.7-77.6,7.1
				c-3.8-0.7-7.6-1.2-11.4-2c-5-0.5-7.8-0.5-7.8-0.5"/>
		</g>
		<g>
			<path class="st0" d="M0,241.7c0.8,0,0.8-0.2,7.9,0.5c1.3,0.3,4.3,0.9,9.4,1.4c3.2,0.3,6.4,0.7,9.8,1.3c5.9,1.8,14.3,1.8,20.6,1.8
				c22-4.7,43.9-12.9,65.1-9.9c3.5,0.5,7,1.4,10.5,2.6c31.1,13.5,62.5-3.2,93.6-0.5c4.1,0,8.2,0.1,12.4,0.4
				c4.1,0.3,8.3,0.8,12.5,1.6c4.9,0.5,9.5,0.8,13.6,0.8c16.5,0,26.7,0,26.7,0"/>
			<path class="st0" d="M282,245.8c0,0-8.6,0-22.9,0c-3.6,0-7.5,0-11.7-0.2c-10.9-2.8-21.8-3.7-32.6-3.5c-3.6,0.1-7.2,0.2-10.7,0.4
				c-20.4-0.1-43.4,6.1-64.2,6.2c-3.8,0.5-7.2,0.2-10.5-0.4c-8.5-5.9-18.9-8-29.4-8c-23,2.1-48.1,14.6-72.1,8.9
				c-3.5-0.5-6.8-0.8-10.1-1.2c-3.3-0.4-6.6-1-9.9-1.7c-5.2-0.4-8-0.4-8-0.4"/>
		</g>
		<g>
			<path class="st0" d="M1,259.7c0,0,2.8,0,7.9,0c3.3,0.7,6.6,1.2,9.9,1.6s6.6,0.6,9.9,0.7c32.6,7.6,64-13.3,95.8-0.5
				c2.6,0.7,5.3,1.3,7.9,1.9c39.7,2.1,75.3-12.6,116-3.7c4.2,0.1,8.1,0.1,11.7,0.1c14.3,0,22.9,0,22.9,0"/>
			<path class="st0" d="M283,263.9c0,0-8.6,0-22.9,0c-3.6,0-7.5,0-11.7,0c-15.6-0.5-28.1-4.7-42.8-2.6c-21.3,1.3-43.4,4-65.5,4.4
				c-3.7,0.1-7.4,0.1-11,0c-30.1-6.5-59.4-0.2-88.7-0.3c-3.8-0.1-7.5-0.2-11.1-0.3c-3.6-0.1-7.2-0.3-10.8-0.6
				c-3.9-0.5-7-0.6-9.6-0.6c-5.1,0-7.9,0-7.9,0"/>
		</g>
	</g>
</g>
</svg>
