<?xml version="1.0" encoding="utf-8"?>
<!-- Generator: Adobe Illustrator 23.0.1, SVG Export Plug-In . SVG Version: 6.00 Build 0)  -->
<svg version="1.1" id="Layer_1" xmlns="http://www.w3.org/2000/svg" xmlns:xlink="http://www.w3.org/1999/xlink" x="0px" y="0px"
	 viewBox="0 0 476.8 126.5" style="enable-background:new 0 0 476.8 126.5;" xml:space="preserve">
<style type="text/css">
	.st0{fill:#FA7268;}
</style>
<g>
	<g>
		<g>
			<path class="st0" d="M182.9,51.1l-15.5,39.5h-5.1l-15.5-39.5v39.5h-11.7V35.8h16.4L164.9,70l13.3-34.2h16.5v54.9h-11.8V51.1z"/>
			<path class="st0" d="M203.9,35.8h38.9v10h-27.2v11.9h26.6v10h-26.6v12.8h27.2v10.1h-38.9V35.8z"/>
			<path class="st0" d="M251.9,35.8h11.7v44.6h23.2v10.3h-34.9V35.8z"/>
			<path class="st0" d="M294.9,35.8h11.7v44.6h23.2v10.3h-34.9V35.8z"/>
			<path class="st0" d="M358.2,34.9c16.6,0,28.7,11.9,28.7,28.4s-12.1,28.4-28.7,28.4c-16.5,0-28.6-11.9-28.6-28.4
				S341.7,34.9,358.2,34.9z M358.2,45.2c-10.1,0-16.6,7.7-16.6,18c0,10.2,6.5,18,16.6,18c10.1,0,16.7-7.8,16.7-18
				C374.9,53,368.3,45.2,358.2,45.2z"/>
			<path class="st0" d="M422.6,53L413,90.7h-12.4l-15.7-54.9H398l9.6,39.7l10.5-39.7h9.1l10.4,39.7l9.5-39.7h13.2l-15.6,54.9h-12.4
				L422.6,53z"/>
		</g>
		<g>
			<polygon class="st0" points="79.1,19 69.5,19 16.5,72 16.5,81.6 20,85.1 82.6,22.5 			"/>
			<polygon class="st0" points="42.4,19 16.5,44.9 16.5,61.4 58.9,19 			"/>
			
				<rect x="16.5" y="57.4" transform="matrix(0.7071 -0.7071 0.7071 0.7071 -26.9251 61.4704)" class="st0" width="88.4" height="11.7"/>
			<polygon class="st0" points="101.5,41.4 38.9,104 42.4,107.5 42.9,107.5 51.9,107.5 105,54.4 105,44.9 			"/>
			<polygon class="st0" points="79.1,107.5 105,81.6 105,65 62.5,107.5 			"/>
		</g>
	</g>
</g>
</svg>
