<?xml version="1.0" encoding="utf-8"?>
<!-- Generator: Adobe Illustrator 22.1.0, SVG Export Plug-In . SVG Version: 6.00 Build 0)  -->
<svg version="1.1" id="Layer_1" xmlns="http://www.w3.org/2000/svg" xmlns:xlink="http://www.w3.org/1999/xlink" x="0px" y="0px"
	 viewBox="0 0 1259 281" style="enable-background:new 0 0 1259 281;" xml:space="preserve">
<style type="text/css">
	.st0{fill:none;stroke:#0A1C26;stroke-width:3;stroke-miterlimit:10;}
</style>
<g>
	<g>
		<path class="st0" d="M472.8,106.4l-42.9,109.4h-14.1l-42.9-109.4v109.4h-32.4V63.7h45.4l36.9,94.8l36.9-94.8h45.6v152.1h-32.6
			V106.4z"/>
		<path class="st0" d="M530.9,63.7h107.6v27.8h-75.2v33.1h73.6v27.8h-73.6v35.3h75.2v28H530.9V63.7z"/>
		<path class="st0" d="M663.8,63.7h32.4v123.6h64.3v28.5h-96.7V63.7z"/>
		<path class="st0" d="M783,63.7h32.4v123.6h64.3v28.5H783V63.7z"/>
		<path class="st0" d="M958.3,61.2c46,0,79.6,32.8,79.6,78.6s-33.5,78.6-79.6,78.6c-45.8,0-79.3-32.8-79.3-78.6
			S912.5,61.2,958.3,61.2z M958.3,90c-28,0-46,21.4-46,49.9c0,28.3,18,49.9,46,49.9c28,0,46.3-21.7,46.3-49.9
			C1004.6,111.4,986.4,90,958.3,90z"/>
		<path class="st0" d="M1136.6,111.4l-26.4,104.4h-34.4l-43.5-152.1h36.2l26.7,109.9l28.9-109.9h25.3l28.7,109.9l26.4-109.9h36.5
			l-43.3,152.1h-34.4L1136.6,111.4z"/>
	</g>
	<g>
		<polygon class="st0" points="185.2,17.4 158.8,17.4 12,164.2 12,190.6 21.7,200.3 194.9,27.1 		"/>
		<polygon class="st0" points="83.7,17.4 12,89.1 12,134.8 129.4,17.4 		"/>
		
			<rect x="12" y="123.7" transform="matrix(0.7071 -0.7071 0.7071 0.7071 -59.508 136.023)" class="st0" width="244.9" height="32.3"/>
		<polygon class="st0" points="247.2,79.4 74,252.6 83.7,262.3 84.9,262.3 110,262.3 256.9,115.4 256.9,89.1 		"/>
		<polygon class="st0" points="185.2,262.3 256.9,190.6 256.9,144.9 139.5,262.3 		"/>
	</g>
</g>
</svg>
